<?xml version="1.0" encoding="utf-8"?>
<svg version="1.1" id="Layer_1" xmlns="http://www.w3.org/2000/svg" xmlns:xlink="http://www.w3.org/1999/xlink" x="0px" y="0px"
	 viewBox="0 0 612.9 238.3" style="enable-background:new 0 0 612.9 238.3;" xml:space="preserve">
<style type="text/css">
	.st0{fill:#333333;}
</style>
<g>
	<path class="st0" d="M85.3,58.7c2.1-5.2,3.9-10.6,7.3-15.8c1.6,2.5,1.2,4.5,1.2,6.5c0.2,6.5,0.1,13,0.5,19.5
		c0.7,10.8,2.7,21.5-1.3,32.1c-1.2,3.1,0,5.9,3.3,6.7c8.3,2,16.7,3.2,25.2,1.6c1.7-0.3,3.4-0.8,4-2.6c0.7-2.1-1-3-2.3-4
		c-4.3-3.4-5.8-7.7-5.9-13.1c-0.2-14.8-0.8-29.6-1.4-44.4c-0.4-9.1-0.8-17.9,5.9-25.4c3.3-3.7,1.9-6.8-3.3-7.7
		c-6.1-1.2-12.3-1.2-18.3,0.1c-5.3,1.2-9.4,4.2-11.8,9.1c-3.8,7.8-7.7,15.5-11.5,23.3c-3.8,7.6-7.4,15.3-11.3,22.8
		c-2.5,4.9-3.7,4.8-6.4-0.1c-1.7-3.1-3.3-6.2-4.7-9.4c-4.1-9.5-8-19.1-12.2-28.5c-6.8-14.9-15.8-20.1-32.1-19
		c-7.2,0.5-9.4,4-5.7,10.1c4.2,6.9,6.2,14.3,6.2,22.3c-0.1,8.2,0,16.4-1,24.4c-1.5,12.6,2,26.3-7.5,37.4c-1.8,2.1-0.1,4.2,2.4,4.8
		c5.6,1.3,11.2,1.9,16.8,0.1c2.9-0.9,4.9-2.6,4.6-6.2C25.2,92,24.6,80.5,23.8,69c-0.5-7.5,0.4-15,0.8-22.5c0.1-1,0.2-2.2,1.2-2.6
		c1.5-0.5,1.9,0.9,2.4,1.9c1.6,3.3,3.3,6.5,4.7,9.9c5.4,13.3,10.7,26.6,16,39.9c1.2,2.9,2.2,6,4.2,8.5c3.3,4.2,7.8,4.5,11.6,0.8
		c2.7-2.6,4.3-5.9,5.8-9.3C76.1,83.7,80.4,71.1,85.3,58.7z"/>
	<path class="st0" d="M348.1,222.8c-4.2-3.1-5.6-7-5.6-12.1c0.1-9.5,0.1-19-1-28.4c-1.5-13.1-8.6-21.1-20.1-21.5
		c-6.3-0.2-12.2,1.9-17.7,4.8c-5,2.6-9.3,2.6-13.8-1.1c-3.9-3.2-8.6-4.2-13.6-4.1c-6.2,0.2-11.8,2.1-16.9,5.4
		c-2.9,1.8-5.1,1.8-7.4-0.8c-2.8-3.2-6.3-4-10.4-2.9c-2.9,0.8-5.9,1-8.8,1.9c-6.2,1.8-7.4,4.5-4,9.8c3.8,5.9,4.8,12.3,5,19
		c0.1,4.3-0.1,8.7,0.1,13c0.4,6.2-0.7,11.7-5.2,16.5c-3.8,4.1-2.5,7.6,2.9,9.4c5.8,2,11.9,1.7,17.8,1.2c7-0.5,8.8-3.2,7.6-10.4
		c-1.8-10.4-2.5-20.8-2.5-31.3c0-4.8,1.2-9.2,4.8-12.8c3.3-3.2,7.2-4.2,11.5-3.1c4,1.1,5.5,4.4,6.3,8.3c1.4,6.6,0.9,13.3,1,19.9
		c0.1,7.5,0.5,14.9-4.9,21.3c-2.6,3.1-0.8,6.7,3.4,7.4c8.4,1.4,16.9,1.5,25.3-0.2c4.2-0.8,5.5-3.6,2.9-6.9c-6-7.5-6.8-16-6.2-24.5
		c-0.3-6.1-0.1-11.6,0.9-17c1.5-8.3,11.3-12.4,17.8-7.5c4,3.1,4.3,7.8,4.5,12.3c0.3,12,1.1,24-1.5,35.8c-0.9,4,0.5,7.2,4.7,8
		c7.4,1.4,15,1.4,22.1-1.5C351.7,229,352.2,225.8,348.1,222.8z"/>
	<path class="st0" d="M606.2,101.6c-5.2-3.2-9.3-7.5-12.8-12.4c-6.2-8.7-12.2-17.5-18.5-26.1c-2.6-3.6-2.9-6.9-0.4-10.6
		c8.4-12.3,15.1-26.1,29.5-33.1c0.6-0.3,1.1-0.8,1.6-1.2c1.5-1.3,2.2-3,1.8-4.9c-0.4-1.9-2.2-2.5-3.9-2.7
		c-7.8-1.1-15.6-1.5-23.4-0.7c-5.9,0.6-6.7,2-4.3,7.4c1.5,3.2,2,6.4,0.6,9.7c-2.5,5.7-6.2,10.7-10.3,15.3c-2.2,2.5-4.2,2.2-6-0.6
		c-2.8-4.4-5.6-8.7-8.4-13c-2.2-3.4-2.8-6.8-1-10.8c2-4.7-0.2-8.2-5.2-8.3c-9.6-0.2-19.3-0.7-28.9,0.9c-2,0.3-4.1,0.7-4.8,3
		c-0.6,2.2,0.8,3.9,2.5,5.1c12.6,8.5,19.3,21.8,27.9,33.6c4.6,6.3,4.6,11.8-0.1,18.1c-8.7,11.6-16.2,24.1-28,33
		c-1.6,1.2-3.9,2.6-3.3,5.2c0.7,2.8,3.5,2.8,5.7,3.1c7.5,1,14.9,1,22.4-0.3c5.6-0.9,6.5-2.5,4.2-7.8c-1.5-3.5-2.6-6.9-0.9-10.6
		c2.9-6,6.6-11.5,11-16.6c2.4-2.7,4.4-2.4,6.4,0.5c3.7,5.5,7.2,11.2,10.2,17.2c1.6,3.1,2,6,0.6,9.5c-2,5.2-0.2,7.9,5.5,8.4
		c4,0.3,8,0.1,12,0.1c5.3,0.1,10.7,0.4,15.9-0.6c2.4-0.5,5.4-0.3,6.1-3.3C610.9,104.8,608.5,103,606.2,101.6z"/>
	<path class="st0" d="M353.1,40.6c-1.8-0.2-3.7,0-5.5,0.2c-6.1,0.7-12.2,0.4-18.4-0.1c-9.8-0.8-19.6-1.5-28.8,3.5
		c-13.6,7.3-17.3,22.7-8.1,35.1c4.7,6.3,4.7,6.4,0.1,13.2c-3.2,4.7-4.4,9.6-0.7,14.3c3.2,4.1,2.1,6.9-0.9,10.4
		c-8.2,9.5-5.7,20.3,5.8,25.6c5.7,2.6,11.8,3.4,18.2,3c4.4,0.3,8.8-0.1,13.2-1.1c10.4-2.3,19.7-6.4,25.7-15.7
		c7.2-11.2,2.2-23.8-10.7-26.9c-1.9-0.5-3.9-0.8-5.9-1c-6.8-0.7-13.6-1.3-20.3-2c-2.6-0.3-5.4-0.8-5.6-3.9c-0.2-3.1,2.5-4,5.1-4.4
		c2.3-0.4,4.6-0.7,6.9-1c17.9-1.8,27.3-12,27-29.9c-0.1-4.2,1.1-7,5.2-8.5c2.8-1,4.1-3.3,3.5-6.4C358.2,42.1,356,40.9,353.1,40.6z
		 M317.5,111.4c5,0.1,9.9,0.8,14.8,1.3c3.4,0.4,6.8,1.1,7.5,5.3c0.7,4.3-0.6,7.9-4.3,10.4c-5.3,3.6-11.2,4.8-16.4,5
		c-11.9-0.1-17.3-5.7-14.7-14.3C306,113.8,310.1,111.2,317.5,111.4z M326.5,74.8c-3.4,6.4-9.9,7.2-14.5,1.6
		c-4.6-5.7-5.3-20-1.2-26.1c3.7-5.6,10.4-5.6,14.5-0.1c2.9,3.9,2.6,8.4,2.8,13.5C328,67.1,328.4,71.1,326.5,74.8z"/>
	<path class="st0" d="M73.5,150.6c-6.4,10.3-8.5,21.9-8.6,36.1c-0.2,2.5,0.4,7.2,1.2,11.8c2,10.8,5.6,21,13.9,28.7
		c16.2,15,42.3,9.9,53.1-11.3c10.7-21,10.7-43-0.3-63.9C120.1,127.8,87.8,127.4,73.5,150.6z M116.9,185.9l-2.1,23.8
		c-0.7,2.4-1.4,4.8-2.5,7.1c-4.6,9.5-13.6,10.2-19.6,1.5c-4.5-6.5-6-14-6.6-21.7c-1-12.1-1.4-24.3,1.5-36.3
		c0.9-3.7,2.2-7.4,4.5-10.5c5.1-6.8,13.1-6.6,17.9,0.4c5.2,7.6,6.2,16.4,6.8,25.2C117.1,178.9,116.9,182.4,116.9,185.9z"/>
	<path class="st0" d="M500.5,102.2c-5-2.6-6.2-6.7-6.1-12.1c0.2-11.5,0.2-23-1.9-34.3c-1.6-8.6-6.7-13.9-15.3-15.7
		c-8.3-1.8-15.9,0.2-22.8,4.7c-3.3,2.1-6.1,2.4-8.6-1.2c-1.3-1.8-3.1-3-5.4-3.2c-5.7-0.3-11.3,0.1-16.7,2.2c-5.2,2-5.8,4.1-2.3,8.4
		c2.5,3.1,5.4,6,5.6,10.3c0.5,9.5,1.2,18.9,0.5,28.4c-0.4,5.2-1.2,9.4-6.1,12.1c-1.8,1-2.7,3-2.3,5.2c0.5,2.4,2.3,3.4,4.6,4
		c4.3,1.1,8.6,0.9,12.9,0.7c3,0,6,0.2,9,0c7.6-0.7,8.8-2.6,6.1-9.6c-3.7-9.7-3.7-19.9-3.9-30c-0.1-3.3,0.6-6.7,1.6-9.8
		c1.9-6.3,7.5-9.8,14.2-9.3c5.7,0.4,8.7,3.3,9.4,10.9c1.2,13.2,3,26.5-2.6,39.3c-2.1,4.7-0.3,7.8,4.6,8.3c7.9,0.8,16,1.2,23.8-0.7
		c2.1-0.5,4.2-1.4,4.6-4C503.7,104.7,502.3,103.1,500.5,102.2z"/>
	<path class="st0" d="M176.3,108.8c2.1-1.3,3.8-2.3,6.2-0.3c6.7,5.6,17.1,6,24.4,1.2c3.7-2.4,4.1-6.1,0.4-7.8
		c-6-2.8-6.8-7.6-6.8-13.2c-0.2-10,0.4-20-1-29.9c-1.2-8.8-5.8-14.7-14.2-17.6c-3.8-1.3-7.7-1.9-12.1-1.8c-3.7-0.3-7.7,0.5-11.6,1.3
		c-6,1.4-11.9,3.4-16.6,7.6c-3.6,3.2-4.5,8.1-2.5,11.3c2.2,3.5,7,4.3,11.7,2.1c2.2-1,3.7-2.7,5.4-4.4c1.5-1.5,2.9-3.2,4.6-4.5
		c3-2.3,6.5-2.6,9.9-1.2c3.4,1.4,4.6,4.5,4.9,8.1c0.5,7.1-1.5,9.5-8.8,10.6c-8.3,1.3-16.4,2.9-23.5,7.6c-7.9,5.2-11.2,14.1-8.6,23.1
		c2.2,7.7,9.4,12.6,18.7,13C164,114.4,170.4,112.6,176.3,108.8z M158.1,89.3c2.4-8.3,11.9-11.6,19.4-9.9c4,0.9,1.8,5.1,2.4,7.4
		c-0.1,9.7-2.7,13.6-10,15.2C161.6,103.7,155.8,97.4,158.1,89.3z"/>
	<path class="st0" d="M45.4,220.7c-4.9-3-6.9-7.3-6.9-13c0.1-10.8,0-21.6,0-32.5c0,0,0,0,0.1,0c0-11.2,0-22.3,0-33.5
		c0-6.7-1.9-8.5-8.5-7.3c-8.7,1.6-16.8,5.2-24.5,9.6c-2.1,1.2-3.9,2.9-3.3,5.6c0.6,2.6,3,2.9,5.1,3.3c7.9,1.5,9.4,3,9.5,10.7
		c0.2,15.1,0,30.3,0.1,45.5c0,5.2-2.2,8.9-6.2,11.8c-1.3,1-2.7,1.9-4,3c-1.8,1.5-2.8,3.3-2,5.7c0.7,2.2,2.7,3.1,4.7,3.2
		c12,0.3,24,0.8,35.9-0.3c2.1-0.2,4.5-0.4,5.3-3c0.8-2.8-0.6-4.8-2.5-6.6C47.3,222,46.4,221.3,45.4,220.7z"/>
	<path class="st0" d="M209.4,217.5c-4.4,1-8.7,2.3-13.1,3.3c-7.9,1.7-14.3-0.8-18.7-7.4c-7-10.4-6.4-21.7-1.9-32.5
		c4.3-10.4,13.8-11.7,22.1-3.7c1.9,1.8,3.7,3.9,6.1,5.1c3.5,1.6,6.8,1.9,9.1-1.9c3.7-6.2,1.3-13.9-5.3-16.7
		c-5.6-2.3-11.5-3.2-19-3.2c-22.3-0.1-37.9,16.7-36.7,40.8c1.1,21.9,17.9,35.5,40.7,32.8c7.6-0.9,14.4-4,20.3-9
		c1.9-1.6,2.8-3.8,1.6-6.3C213.4,216.4,211.3,217,209.4,217.5z"/>
	<path class="st0" d="M253.8,111.3c6.8-1.4,8.3-4.3,3.2-9.1c-9.2-8.7-9.3-19.4-8-30.5c1.8-14.7,5.2-16.9,19.2-12.4
		c5.3,1.7,9.2-0.6,10.3-6c1.5-7.7-3.7-12.9-11.7-11.6c-4.5,0.8-8.5,2.7-12.3,5.2c-2.8,1.9-4.9,1.9-6.1-1.8c-1-3.1-3.6-4.2-6.5-4.6
		c-6.4-0.7-12.6,0.3-18.6,2.5c-4.8,1.7-5.6,5.9-1.5,8.6c5.2,3.4,6.6,7.9,6.4,13.6c-0.1,4.8,0.1,9.6,0.1,14.5c0,8.7,1.2,17.9-7.5,24
		c-0.1,0.1-0.2,0.3-0.3,0.4c-2.4,3.9-1.4,6.2,3,7.2c4.7,1.1,9.6,0.5,14.4,0.8C243.2,111.9,248.5,112.4,253.8,111.3z"/>
	<path class="st0" d="M399.5,84.8c0.3-5.3,0-10.6,0-16c-0.1,0-0.2,0-0.3,0c0-7.3,0-14.6,0-21.9c0-4-1.7-6.8-6.2-6.8
		c-6.5,0.1-12.9,0.6-19.2,2.7c-2.1,0.7-4.2,1.7-4.6,4.1c-0.5,2.8,1.6,4.2,3.6,5.4c2.9,1.6,5.8,3.6,5.6,7.1
		c-1,15.4,5.7,32.2-7.4,45.6c-0.3,0.3-0.5,0.9-0.7,1.3c-1,3.2,0,5.6,3.4,5.6c10.1,0.1,20.3,0.3,30.4-0.3c5.5-0.3,6.4-3,2.4-7
		C401.1,99.1,399.1,92.5,399.5,84.8z"/>
	<path class="st0" d="M388.4,28.1c7.4-0.1,12.1-4.3,12.2-10.8c0-6.9-4.4-10.9-11.9-10.9c-7.4,0-12.4,4.6-12.2,11.4
		C376.6,24.4,380.9,28.2,388.4,28.1z"/>
</g>
</svg>
